<?xml version="1.0" encoding="utf-8"?>
<!-- Generator: Adobe Illustrator 16.0.0, SVG Export Plug-In . SVG Version: 6.00 Build 0)  -->
<!DOCTYPE svg PUBLIC "-//W3C//DTD SVG 1.1//EN" "http://www.w3.org/Graphics/SVG/1.1/DTD/svg11.dtd">
<svg version="1.1" id="Layer_1" xmlns="http://www.w3.org/2000/svg" xmlns:xlink="http://www.w3.org/1999/xlink" x="0px" y="0px"
	 width="17px" height="17px" viewBox="0 0 17 17" enable-background="new 0 0 17 17" xml:space="preserve">
<g>
	<path fill="#C9BCB7" d="M8.441,1.074c2.184,0,3.902,1.617,3.902,3.66s-1.719,3.656-3.902,3.656c-2.18,0-3.902-1.613-3.902-3.656
		S6.375,1.074,8.441,1.074 M8.441,0C5.688,0,3.395,2.152,3.395,4.734c0,1.828,1.145,3.441,2.867,4.195
		c-3.559,0.969-6.195,3.875-6.195,7.531c0,0.324,0.227,0.539,0.57,0.539c0.348,0,0.574-0.215,0.574-0.539
		c0-3.766,3.215-6.777,7.23-6.777c4.02,0,7.23,3.012,7.23,6.777c0,0.324,0.23,0.539,0.574,0.539s0.574-0.215,0.574-0.539
		c0-3.656-2.641-6.563-6.195-7.531c1.719-0.754,2.867-2.367,2.867-4.195C13.605,2.152,11.313,0,8.441,0"/>
</g>
</svg>
