<?xml version="1.0" encoding="utf-8"?>
<!-- Generator: Adobe Illustrator 16.0.0, SVG Export Plug-In . SVG Version: 6.00 Build 0)  -->
<!DOCTYPE svg PUBLIC "-//W3C//DTD SVG 1.1//EN" "http://www.w3.org/Graphics/SVG/1.1/DTD/svg11.dtd">
<svg version="1.1" id="Layer_1" xmlns="http://www.w3.org/2000/svg" xmlns:xlink="http://www.w3.org/1999/xlink" x="0px" y="0px"
	 width="17px" height="17px" viewBox="0 0 17 17" enable-background="new 0 0 17 17" xml:space="preserve">
<path fill="#C9BCB7" d="M14.797,3.859c0-0.064-0.065-0.192-0.192-0.192h-1.606c-0.065,0-0.194-0.064-0.194-0.193
	c-0.578-1.992-2.248-3.341-4.369-3.405C6.38,0.132,4.645,1.481,4.067,3.474c0,0.128-0.129,0.193-0.193,0.193H2.395
	c-0.128,0-0.192,0.128-0.192,0.192L1.24,16.838c0,0.128,0.128,0.192,0.192,0.192H8.5h7.068c0.063,0,0.192-0.064,0.192-0.192
	L14.797,3.859z M8.5,0.904c1.606,0,3.211,1.221,3.534,2.763H8.5H4.965C5.287,2.125,6.893,0.904,8.5,0.904z M8.5,16.195H2.203
	L2.974,4.566h1.542h0.322h3.727h3.727h0.319h1.543l0.771,11.629H8.5z"/>
</svg>
