<?xml version="1.0" encoding="utf-8"?>
<!-- Generator: Adobe Illustrator 16.0.0, SVG Export Plug-In . SVG Version: 6.00 Build 0)  -->
<!DOCTYPE svg PUBLIC "-//W3C//DTD SVG 1.1//EN" "http://www.w3.org/Graphics/SVG/1.1/DTD/svg11.dtd">
<svg version="1.1" id="Layer_1" xmlns="http://www.w3.org/2000/svg" xmlns:xlink="http://www.w3.org/1999/xlink" x="0px" y="0px"
	 width="17px" height="17px" viewBox="0 0 17 17" enable-background="new 0 0 17 17" xml:space="preserve">
<g id="Symbols">
	<g id="Header_x2F_desktop" transform="translate(-1309.000000, -26.000000)">
		<g id="Icone" transform="translate(1276.000000, 25.000000)">
			<g id="Wishlist" transform="translate(33.000000, 1.000000)">
				<path id="Shape" fill="#C9BCB7" d="M4.513,0.86c-1.125,0-2.25,0.455-3.113,1.365c-1.7,1.819-1.7,4.717,0,6.536l6.752,7.231
					c0.191,0.191,0.479,0.191,0.67,0.025l0.024-0.025c2.251-2.418,4.501-4.813,6.752-7.231c1.7-1.819,1.7-4.717,0-6.536
					c-1.7-1.82-4.501-1.82-6.202,0L8.487,3.183l-0.91-0.958C6.763,1.315,5.638,0.86,4.513,0.86L4.513,0.86z M4.513,1.794
					c0.862,0,1.724,0.36,2.395,1.078l1.245,1.341c0.191,0.191,0.479,0.191,0.67,0.023l0.024-0.023l1.245-1.341
					c1.341-1.437,3.447-1.437,4.813,0c1.341,1.437,1.341,3.808,0,5.243c-2.131,2.299-4.262,4.575-6.417,6.872L2.07,8.115
					c-1.341-1.436-1.341-3.807,0-5.243C2.789,2.154,3.651,1.794,4.513,1.794z"/>
			</g>
		</g>
	</g>
</g>
</svg>
